# MagicaVoxel @ Ephtracy

# group
o GUN

# material
mtllib gun.mtl
usemtl palette

# normals
vn -1 0 0
vn 1 0 0
vn 0 -1 0
vn 0 1 0
vn 0 0 -1
vn 0 0 1

# texcoords
vt 0.0449219 0.5
vt 0.123047 0.5
vt 0.544922 0.5
vt 0.876953 0.5

# verts
v -0.2 -0.2 -0.1
v -0.2 0.1 -0.1
v -0.2 -0.2 0
v -0.2 0.1 0
v -0.1 0.1 -0.1
v -0.1 0.4 -0.1
v -0.1 0.1 0
v -0.1 0.4 0
v 0 0.4 -0.1
v 0 0.5 -0.1
v 0 0.4 0
v 0 0.5 0
v 0.1 -0.2 -0.1
v 0.1 -0.1 -0.1
v 0.1 -0.2 0
v 0.1 -0.1 0
v 0.2 -0.1 -0.1
v 0.2 0 -0.1
v 0.2 -0.1 0
v 0.2 0 0
v 0.6 0 -0.1
v 0.6 0.1 -0.1
v 0.6 0 0
v 0.6 0.1 0
v 0.7 0.1 -0.1
v 0.7 0.5 -0.1
v 0.7 0.1 0
v 0.7 0.5 0
v -0.2 -0.2 -0.1
v -0.2 -0.2 0
v 0.1 -0.2 -0.1
v 0.1 -0.2 0
v 0.1 -0.1 -0.1
v 0.1 -0.1 0
v 0.2 -0.1 -0.1
v 0.2 -0.1 0
v 0.2 0 -0.1
v 0.2 0 0
v 0.6 0 -0.1
v 0.6 0 0
v 0.6 0.1 -0.1
v 0.6 0.1 0
v 0.7 0.1 -0.1
v 0.7 0.1 0
v -0.2 0.1 -0.1
v -0.2 0.1 0
v -0.1 0.1 -0.1
v -0.1 0.1 0
v -0.1 0.4 -0.1
v -0.1 0.4 0
v 0 0.4 -0.1
v 0 0.4 0
v 0 0.5 -0.1
v 0 0.5 0
v 0.7 0.5 -0.1
v 0.7 0.5 0
v -0.2 -0.2 -0.1
v 0.1 -0.2 -0.1
v -0.1 -0.1 -0.1
v 0.1 -0.1 -0.1
v 0.2 -0.1 -0.1
v 0.2 0 -0.1
v 0.6 0 -0.1
v -0.2 0.1 -0.1
v -0.1 0.1 -0.1
v 0.1 0.1 -0.1
v 0.2 0.1 -0.1
v 0.6 0.1 -0.1
v 0.7 0.1 -0.1
v 0 0.2 -0.1
v 0.2 0.2 -0.1
v 0.6 0.2 -0.1
v -0.1 0.4 -0.1
v 0 0.4 -0.1
v 0.6 0.4 -0.1
v 0 0.5 -0.1
v 0.7 0.5 -0.1
v -0.2 -0.2 0
v 0.1 -0.2 0
v -0.1 -0.1 0
v 0.1 -0.1 0
v 0.2 -0.1 0
v 0.2 0 0
v 0.6 0 0
v -0.2 0.1 0
v -0.1 0.1 0
v 0.1 0.1 0
v 0.2 0.1 0
v 0.6 0.1 0
v 0.7 0.1 0
v 0 0.2 0
v 0.2 0.2 0
v 0.6 0.2 0
v -0.1 0.4 0
v 0 0.4 0
v 0.6 0.4 0
v 0 0.5 0
v 0.7 0.5 0

# faces
f 3/4/1 2/4/1 1/4/1
f 4/4/1 2/4/1 3/4/1
f 7/4/1 6/4/1 5/4/1
f 8/4/1 6/4/1 7/4/1
f 11/4/1 10/4/1 9/4/1
f 12/4/1 10/4/1 11/4/1
f 13/4/2 14/4/2 15/4/2
f 15/4/2 14/4/2 16/4/2
f 17/4/2 18/4/2 19/4/2
f 19/4/2 18/4/2 20/4/2
f 21/4/2 22/4/2 23/4/2
f 23/4/2 22/4/2 24/4/2
f 25/4/2 26/4/2 27/4/2
f 27/4/2 26/4/2 28/4/2
f 31/4/3 30/4/3 29/4/3
f 32/4/3 30/4/3 31/4/3
f 35/4/3 34/4/3 33/4/3
f 36/4/3 34/4/3 35/4/3
f 39/4/3 38/4/3 37/4/3
f 40/4/3 38/4/3 39/4/3
f 43/4/3 42/4/3 41/4/3
f 44/4/3 42/4/3 43/4/3
f 45/4/4 46/4/4 47/4/4
f 47/4/4 46/4/4 48/4/4
f 49/4/4 50/4/4 51/4/4
f 51/4/4 50/4/4 52/4/4
f 53/4/4 54/4/4 55/4/4
f 55/4/4 54/4/4 56/4/4
f 59/4/5 58/4/5 57/4/5
f 60/4/5 58/4/5 59/4/5
f 62/4/5 61/4/5 60/4/5
f 64/4/5 59/4/5 57/4/5
f 65/1/5 60/1/5 59/1/5
f 65/4/5 59/4/5 64/4/5
f 66/4/5 63/4/5 62/4/5
f 66/1/5 60/1/5 65/1/5
f 66/4/5 62/4/5 60/4/5
f 67/4/5 63/4/5 66/4/5
f 68/4/5 63/4/5 67/4/5
f 70/4/5 66/4/5 65/4/5
f 70/4/5 67/4/5 66/4/5
f 71/3/5 68/3/5 67/3/5
f 71/4/5 67/4/5 70/4/5
f 72/4/5 69/4/5 68/4/5
f 72/3/5 68/3/5 71/3/5
f 73/4/5 70/4/5 65/4/5
f 74/2/5 71/2/5 70/2/5
f 74/4/5 70/4/5 73/4/5
f 74/2/5 72/2/5 71/2/5
f 75/4/5 69/4/5 72/4/5
f 75/2/5 72/2/5 74/2/5
f 76/4/5 75/4/5 74/4/5
f 77/4/5 69/4/5 75/4/5
f 77/4/5 75/4/5 76/4/5
f 78/4/6 79/4/6 80/4/6
f 80/4/6 79/4/6 81/4/6
f 81/4/6 82/4/6 83/4/6
f 78/4/6 80/4/6 85/4/6
f 80/1/6 81/1/6 86/1/6
f 85/4/6 80/4/6 86/4/6
f 83/4/6 84/4/6 87/4/6
f 86/1/6 81/1/6 87/1/6
f 81/4/6 83/4/6 87/4/6
f 87/4/6 84/4/6 88/4/6
f 88/4/6 84/4/6 89/4/6
f 86/4/6 87/4/6 91/4/6
f 87/4/6 88/4/6 91/4/6
f 88/3/6 89/3/6 92/3/6
f 91/4/6 88/4/6 92/4/6
f 89/4/6 90/4/6 93/4/6
f 92/3/6 89/3/6 93/3/6
f 86/4/6 91/4/6 94/4/6
f 91/2/6 92/2/6 95/2/6
f 94/4/6 91/4/6 95/4/6
f 92/2/6 93/2/6 95/2/6
f 93/4/6 90/4/6 96/4/6
f 95/2/6 93/2/6 96/2/6
f 95/4/6 96/4/6 97/4/6
f 96/4/6 90/4/6 98/4/6
f 97/4/6 96/4/6 98/4/6
