# MagicaVoxel @ Ephtracy

# group
o Calque 2

# material
mtllib swords-efffects-0-Calque 2.mtl
usemtl palette

# normals
vn -1 0 0
vn 1 0 0
vn 0 0 1
vn 0 0 -1
vn 0 -1 0
vn 0 1 0

# texcoords
vt 0.705078 0.5
vt 0.759766 0.5

# verts
v -1.6 0 0.4
v -1.6 0 -0.4
v -1.6 0.1 0.4
v -1.6 0.1 -0.4
v -1.5 0 0.7
v -1.5 0 0.4
v -1.5 0 -0.4
v -1.5 0 -0.7
v -1.5 0.1 0.7
v -1.5 0.1 0.4
v -1.5 0.1 -0.4
v -1.5 0.1 -0.7
v -1.4 0 0.9
v -1.4 0 0.7
v -1.4 0 -0.7
v -1.4 0 -0.9
v -1.4 0.1 0.9
v -1.4 0.1 0.7
v -1.4 0.1 -0.7
v -1.4 0.1 -0.9
v -1.3 0 1
v -1.3 0 0.9
v -1.3 0 -0.9
v -1.3 0 -1
v -1.3 0.1 1
v -1.3 0.1 0.9
v -1.3 0.1 -0.9
v -1.3 0.1 -1
v -1.2 0 1.1
v -1.2 0 1
v -1.2 0 -1
v -1.2 0 -1.1
v -1.2 0.1 1.1
v -1.2 0.1 1
v -1.2 0.1 -1
v -1.2 0.1 -1.1
v -1.1 0 1.2
v -1.1 0 1.1
v -1.1 0 -1.1
v -1.1 0 -1.2
v -1.1 0.1 1.2
v -1.1 0.1 1.1
v -1.1 0.1 -1.1
v -1.1 0.1 -1.2
v -1 0 1.3
v -1 0 1.2
v -1 0 -1.2
v -1 0 -1.3
v -1 0.1 1.3
v -1 0.1 1.2
v -1 0.1 -1.2
v -1 0.1 -1.3
v -0.9 0 1.4
v -0.9 0 1.3
v -0.9 0 -1.3
v -0.9 0 -1.4
v -0.9 0.1 1.4
v -0.9 0.1 1.3
v -0.9 0.1 -1.3
v -0.9 0.1 -1.4
v -0.7 0 1.5
v -0.7 0 1.4
v -0.7 0 -1.4
v -0.7 0 -1.5
v -0.7 0.1 1.5
v -0.7 0.1 1.4
v -0.7 0.1 -1.4
v -0.7 0.1 -1.5
v -0.4 0 1.6
v -0.4 0 1.5
v -0.4 0 -1.5
v -0.4 0 -1.6
v -0.4 0.1 1.6
v -0.4 0.1 1.5
v -0.4 0.1 -1.5
v -0.4 0.1 -1.6
v 0.4 0 1.6
v 0.4 0 1.5
v 0.4 0 -1.5
v 0.4 0 -1.6
v 0.4 0.1 1.6
v 0.4 0.1 1.5
v 0.4 0.1 -1.5
v 0.4 0.1 -1.6
v 0.7 0 1.5
v 0.7 0 1.4
v 0.7 0 -1.4
v 0.7 0 -1.5
v 0.7 0.1 1.5
v 0.7 0.1 1.4
v 0.7 0.1 -1.4
v 0.7 0.1 -1.5
v 0.9 0 1.4
v 0.9 0 1.3
v 0.9 0 -1.3
v 0.9 0 -1.4
v 0.9 0.1 1.4
v 0.9 0.1 1.3
v 0.9 0.1 -1.3
v 0.9 0.1 -1.4
v 1 0 1.3
v 1 0 1.2
v 1 0 -1.2
v 1 0 -1.3
v 1 0.1 1.3
v 1 0.1 1.2
v 1 0.1 -1.2
v 1 0.1 -1.3
v 1.1 0 1.2
v 1.1 0 1.1
v 1.1 0 -1.1
v 1.1 0 -1.2
v 1.1 0.1 1.2
v 1.1 0.1 1.1
v 1.1 0.1 -1.1
v 1.1 0.1 -1.2
v 1.2 0 1.1
v 1.2 0 1
v 1.2 0 -1
v 1.2 0 -1.1
v 1.2 0.1 1.1
v 1.2 0.1 1
v 1.2 0.1 -1
v 1.2 0.1 -1.1
v 1.3 0 1
v 1.3 0 0.9
v 1.3 0 -0.9
v 1.3 0 -1
v 1.3 0.1 1
v 1.3 0.1 0.9
v 1.3 0.1 -0.9
v 1.3 0.1 -1
v 1.4 0 0.9
v 1.4 0 0.7
v 1.4 0 -0.7
v 1.4 0 -0.9
v 1.4 0.1 0.9
v 1.4 0.1 0.7
v 1.4 0.1 -0.7
v 1.4 0.1 -0.9
v 1.5 0 0.7
v 1.5 0 0.4
v 1.5 0 -0.4
v 1.5 0 -0.7
v 1.5 0.1 0.7
v 1.5 0.1 0.4
v 1.5 0.1 -0.4
v 1.5 0.1 -0.7
v 1.6 0 0.4
v 1.6 0 -0.4
v 1.6 0.1 0.4
v 1.6 0.1 -0.4
v -0.4 0 1.6
v -0.4 0.1 1.6
v 0.4 0 1.6
v 0.4 0.1 1.6
v -0.7 0 1.5
v -0.7 0.1 1.5
v -0.4 0 1.5
v -0.4 0.1 1.5
v 0.4 0 1.5
v 0.4 0.1 1.5
v 0.7 0 1.5
v 0.7 0.1 1.5
v -0.9 0 1.4
v -0.9 0.1 1.4
v -0.7 0 1.4
v -0.7 0.1 1.4
v 0.7 0 1.4
v 0.7 0.1 1.4
v 0.9 0 1.4
v 0.9 0.1 1.4
v -1 0 1.3
v -1 0.1 1.3
v -0.9 0 1.3
v -0.9 0.1 1.3
v 0.9 0 1.3
v 0.9 0.1 1.3
v 1 0 1.3
v 1 0.1 1.3
v -1.1 0 1.2
v -1.1 0.1 1.2
v -1 0 1.2
v -1 0.1 1.2
v 1 0 1.2
v 1 0.1 1.2
v 1.1 0 1.2
v 1.1 0.1 1.2
v -1.2 0 1.1
v -1.2 0.1 1.1
v -1.1 0 1.1
v -1.1 0.1 1.1
v 1.1 0 1.1
v 1.1 0.1 1.1
v 1.2 0 1.1
v 1.2 0.1 1.1
v -1.3 0 1
v -1.3 0.1 1
v -1.2 0 1
v -1.2 0.1 1
v 1.2 0 1
v 1.2 0.1 1
v 1.3 0 1
v 1.3 0.1 1
v -1.4 0 0.9
v -1.4 0.1 0.9
v -1.3 0 0.9
v -1.3 0.1 0.9
v 1.3 0 0.9
v 1.3 0.1 0.9
v 1.4 0 0.9
v 1.4 0.1 0.9
v -1.5 0 0.7
v -1.5 0.1 0.7
v -1.4 0 0.7
v -1.4 0.1 0.7
v 1.4 0 0.7
v 1.4 0.1 0.7
v 1.5 0 0.7
v 1.5 0.1 0.7
v -1.6 0 0.4
v -1.6 0.1 0.4
v -1.5 0 0.4
v -1.5 0.1 0.4
v 1.5 0 0.4
v 1.5 0.1 0.4
v 1.6 0 0.4
v 1.6 0.1 0.4
v -1.6 0 -0.4
v -1.6 0.1 -0.4
v -1.5 0 -0.4
v -1.5 0.1 -0.4
v 1.5 0 -0.4
v 1.5 0.1 -0.4
v 1.6 0 -0.4
v 1.6 0.1 -0.4
v -1.5 0 -0.7
v -1.5 0.1 -0.7
v -1.4 0 -0.7
v -1.4 0.1 -0.7
v 1.4 0 -0.7
v 1.4 0.1 -0.7
v 1.5 0 -0.7
v 1.5 0.1 -0.7
v -1.4 0 -0.9
v -1.4 0.1 -0.9
v -1.3 0 -0.9
v -1.3 0.1 -0.9
v 1.3 0 -0.9
v 1.3 0.1 -0.9
v 1.4 0 -0.9
v 1.4 0.1 -0.9
v -1.3 0 -1
v -1.3 0.1 -1
v -1.2 0 -1
v -1.2 0.1 -1
v 1.2 0 -1
v 1.2 0.1 -1
v 1.3 0 -1
v 1.3 0.1 -1
v -1.2 0 -1.1
v -1.2 0.1 -1.1
v -1.1 0 -1.1
v -1.1 0.1 -1.1
v 1.1 0 -1.1
v 1.1 0.1 -1.1
v 1.2 0 -1.1
v 1.2 0.1 -1.1
v -1.1 0 -1.2
v -1.1 0.1 -1.2
v -1 0 -1.2
v -1 0.1 -1.2
v 1 0 -1.2
v 1 0.1 -1.2
v 1.1 0 -1.2
v 1.1 0.1 -1.2
v -1 0 -1.3
v -1 0.1 -1.3
v -0.9 0 -1.3
v -0.9 0.1 -1.3
v 0.9 0 -1.3
v 0.9 0.1 -1.3
v 1 0 -1.3
v 1 0.1 -1.3
v -0.9 0 -1.4
v -0.9 0.1 -1.4
v -0.7 0 -1.4
v -0.7 0.1 -1.4
v 0.7 0 -1.4
v 0.7 0.1 -1.4
v 0.9 0 -1.4
v 0.9 0.1 -1.4
v -0.7 0 -1.5
v -0.7 0.1 -1.5
v -0.4 0 -1.5
v -0.4 0.1 -1.5
v 0.4 0 -1.5
v 0.4 0.1 -1.5
v 0.7 0 -1.5
v 0.7 0.1 -1.5
v -0.4 0 -1.6
v -0.4 0.1 -1.6
v 0.4 0 -1.6
v 0.4 0.1 -1.6
v -0.4 0 1.6
v 0.4 0 1.6
v -0.7 0 1.5
v -0.4 0 1.5
v 0.4 0 1.5
v 0.7 0 1.5
v -0.9 0 1.4
v -0.7 0 1.4
v 0.7 0 1.4
v 0.9 0 1.4
v -1 0 1.3
v -0.9 0 1.3
v 0.9 0 1.3
v 1 0 1.3
v -1.1 0 1.2
v -1 0 1.2
v 1 0 1.2
v 1.1 0 1.2
v -1.2 0 1.1
v -1.1 0 1.1
v 1.1 0 1.1
v 1.2 0 1.1
v -1.3 0 1
v -1.2 0 1
v -1.1 0 1
v -1 0 1
v 1 0 1
v 1.1 0 1
v 1.2 0 1
v 1.3 0 1
v -1.4 0 0.9
v -1.3 0 0.9
v -1 0 0.9
v -0.9 0 0.9
v 0.9 0 0.9
v 1 0 0.9
v 1.3 0 0.9
v 1.4 0 0.9
v -0.9 0 0.8
v -0.8 0 0.8
v 0.8 0 0.8
v 0.9 0 0.8
v -1.5 0 0.7
v -1.4 0 0.7
v -0.8 0 0.7
v -0.7 0 0.7
v 0.7 0 0.7
v 0.8 0 0.7
v 1.4 0 0.7
v 1.5 0 0.7
v -0.7 0 0.6
v -0.6 0 0.6
v 0.6 0 0.6
v 0.7 0 0.6
v -0.6 0 0.5
v -0.5 0 0.5
v 0.5 0 0.5
v 0.6 0 0.5
v -1.6 0 0.4
v -1.5 0 0.4
v -0.5 0 0.4
v -0.4 0 0.4
v 0.4 0 0.4
v 0.5 0 0.4
v 1.5 0 0.4
v 1.6 0 0.4
v -0.4 0 0.3
v -0.3 0 0.3
v 0.3 0 0.3
v 0.4 0 0.3
v -0.3 0 0.2
v -0.2 0 0.2
v 0.2 0 0.2
v 0.3 0 0.2
v -0.2 0 0.1
v -0.1 0 0.1
v 0.1 0 0.1
v 0.2 0 0.1
v -0.2 0 -0.1
v -0.1 0 -0.1
v 0.1 0 -0.1
v 0.2 0 -0.1
v -0.3 0 -0.2
v -0.2 0 -0.2
v 0.2 0 -0.2
v 0.3 0 -0.2
v -0.4 0 -0.3
v -0.3 0 -0.3
v 0.3 0 -0.3
v 0.4 0 -0.3
v -1.6 0 -0.4
v -1.5 0 -0.4
v -0.5 0 -0.4
v -0.4 0 -0.4
v 0.4 0 -0.4
v 0.5 0 -0.4
v 1.5 0 -0.4
v 1.6 0 -0.4
v -0.6 0 -0.5
v -0.5 0 -0.5
v 0.5 0 -0.5
v 0.6 0 -0.5
v -0.7 0 -0.6
v -0.6 0 -0.6
v 0.6 0 -0.6
v 0.7 0 -0.6
v -1.5 0 -0.7
v -1.4 0 -0.7
v -0.8 0 -0.7
v -0.7 0 -0.7
v 0.7 0 -0.7
v 0.8 0 -0.7
v 1.4 0 -0.7
v 1.5 0 -0.7
v -0.9 0 -0.8
v -0.8 0 -0.8
v 0.8 0 -0.8
v 0.9 0 -0.8
v -1.4 0 -0.9
v -1.3 0 -0.9
v -1 0 -0.9
v -0.9 0 -0.9
v 0.9 0 -0.9
v 1 0 -0.9
v 1.3 0 -0.9
v 1.4 0 -0.9
v -1.3 0 -1
v -1.2 0 -1
v -1.1 0 -1
v -1 0 -1
v 1 0 -1
v 1.1 0 -1
v 1.2 0 -1
v 1.3 0 -1
v -1.2 0 -1.1
v -1.1 0 -1.1
v 1.1 0 -1.1
v 1.2 0 -1.1
v -1.1 0 -1.2
v -1 0 -1.2
v 1 0 -1.2
v 1.1 0 -1.2
v -1 0 -1.3
v -0.9 0 -1.3
v 0.9 0 -1.3
v 1 0 -1.3
v -0.9 0 -1.4
v -0.7 0 -1.4
v 0.7 0 -1.4
v 0.9 0 -1.4
v -0.7 0 -1.5
v -0.4 0 -1.5
v 0.4 0 -1.5
v 0.7 0 -1.5
v -0.4 0 -1.6
v 0.4 0 -1.6
v -0.4 0.1 1.6
v 0.4 0.1 1.6
v -0.7 0.1 1.5
v -0.4 0.1 1.5
v 0.4 0.1 1.5
v 0.7 0.1 1.5
v -0.9 0.1 1.4
v -0.7 0.1 1.4
v 0.7 0.1 1.4
v 0.9 0.1 1.4
v -1 0.1 1.3
v -0.9 0.1 1.3
v 0.9 0.1 1.3
v 1 0.1 1.3
v -1.1 0.1 1.2
v -1 0.1 1.2
v 1 0.1 1.2
v 1.1 0.1 1.2
v -1.2 0.1 1.1
v -1.1 0.1 1.1
v 1.1 0.1 1.1
v 1.2 0.1 1.1
v -1.3 0.1 1
v -1.2 0.1 1
v -1.1 0.1 1
v -1 0.1 1
v 1 0.1 1
v 1.1 0.1 1
v 1.2 0.1 1
v 1.3 0.1 1
v -1.4 0.1 0.9
v -1.3 0.1 0.9
v -1 0.1 0.9
v -0.9 0.1 0.9
v 0.9 0.1 0.9
v 1 0.1 0.9
v 1.3 0.1 0.9
v 1.4 0.1 0.9
v -0.9 0.1 0.8
v -0.8 0.1 0.8
v 0.8 0.1 0.8
v 0.9 0.1 0.8
v -1.5 0.1 0.7
v -1.4 0.1 0.7
v -0.8 0.1 0.7
v -0.7 0.1 0.7
v 0.7 0.1 0.7
v 0.8 0.1 0.7
v 1.4 0.1 0.7
v 1.5 0.1 0.7
v -0.7 0.1 0.6
v -0.6 0.1 0.6
v 0.6 0.1 0.6
v 0.7 0.1 0.6
v -0.6 0.1 0.5
v -0.5 0.1 0.5
v 0.5 0.1 0.5
v 0.6 0.1 0.5
v -1.6 0.1 0.4
v -1.5 0.1 0.4
v -0.5 0.1 0.4
v -0.4 0.1 0.4
v 0.4 0.1 0.4
v 0.5 0.1 0.4
v 1.5 0.1 0.4
v 1.6 0.1 0.4
v -0.4 0.1 0.3
v -0.3 0.1 0.3
v 0.3 0.1 0.3
v 0.4 0.1 0.3
v -0.3 0.1 0.2
v -0.2 0.1 0.2
v 0.2 0.1 0.2
v 0.3 0.1 0.2
v -0.2 0.1 0.1
v -0.1 0.1 0.1
v 0.1 0.1 0.1
v 0.2 0.1 0.1
v -0.2 0.1 -0.1
v -0.1 0.1 -0.1
v 0.1 0.1 -0.1
v 0.2 0.1 -0.1
v -0.3 0.1 -0.2
v -0.2 0.1 -0.2
v 0.2 0.1 -0.2
v 0.3 0.1 -0.2
v -0.4 0.1 -0.3
v -0.3 0.1 -0.3
v 0.3 0.1 -0.3
v 0.4 0.1 -0.3
v -1.6 0.1 -0.4
v -1.5 0.1 -0.4
v -0.5 0.1 -0.4
v -0.4 0.1 -0.4
v 0.4 0.1 -0.4
v 0.5 0.1 -0.4
v 1.5 0.1 -0.4
v 1.6 0.1 -0.4
v -0.6 0.1 -0.5
v -0.5 0.1 -0.5
v 0.5 0.1 -0.5
v 0.6 0.1 -0.5
v -0.7 0.1 -0.6
v -0.6 0.1 -0.6
v 0.6 0.1 -0.6
v 0.7 0.1 -0.6
v -1.5 0.1 -0.7
v -1.4 0.1 -0.7
v -0.8 0.1 -0.7
v -0.7 0.1 -0.7
v 0.7 0.1 -0.7
v 0.8 0.1 -0.7
v 1.4 0.1 -0.7
v 1.5 0.1 -0.7
v -0.9 0.1 -0.8
v -0.8 0.1 -0.8
v 0.8 0.1 -0.8
v 0.9 0.1 -0.8
v -1.4 0.1 -0.9
v -1.3 0.1 -0.9
v -1 0.1 -0.9
v -0.9 0.1 -0.9
v 0.9 0.1 -0.9
v 1 0.1 -0.9
v 1.3 0.1 -0.9
v 1.4 0.1 -0.9
v -1.3 0.1 -1
v -1.2 0.1 -1
v -1.1 0.1 -1
v -1 0.1 -1
v 1 0.1 -1
v 1.1 0.1 -1
v 1.2 0.1 -1
v 1.3 0.1 -1
v -1.2 0.1 -1.1
v -1.1 0.1 -1.1
v 1.1 0.1 -1.1
v 1.2 0.1 -1.1
v -1.1 0.1 -1.2
v -1 0.1 -1.2
v 1 0.1 -1.2
v 1.1 0.1 -1.2
v -1 0.1 -1.3
v -0.9 0.1 -1.3
v 0.9 0.1 -1.3
v 1 0.1 -1.3
v -0.9 0.1 -1.4
v -0.7 0.1 -1.4
v 0.7 0.1 -1.4
v 0.9 0.1 -1.4
v -0.7 0.1 -1.5
v -0.4 0.1 -1.5
v 0.4 0.1 -1.5
v 0.7 0.1 -1.5
v -0.4 0.1 -1.6
v 0.4 0.1 -1.6

# faces
f 3/1/1 2/1/1 1/1/1
f 4/1/1 2/1/1 3/1/1
f 9/1/1 6/1/1 5/1/1
f 10/1/1 6/1/1 9/1/1
f 11/1/1 8/1/1 7/1/1
f 12/1/1 8/1/1 11/1/1
f 17/1/1 14/1/1 13/1/1
f 18/1/1 14/1/1 17/1/1
f 19/1/1 16/1/1 15/1/1
f 20/1/1 16/1/1 19/1/1
f 25/1/1 22/1/1 21/1/1
f 26/1/1 22/1/1 25/1/1
f 27/1/1 24/1/1 23/1/1
f 28/1/1 24/1/1 27/1/1
f 33/1/1 30/1/1 29/1/1
f 34/1/1 30/1/1 33/1/1
f 35/1/1 32/1/1 31/1/1
f 36/1/1 32/1/1 35/1/1
f 41/2/1 38/2/1 37/2/1
f 42/2/1 38/2/1 41/2/1
f 43/2/1 40/2/1 39/2/1
f 44/2/1 40/2/1 43/2/1
f 49/2/1 46/2/1 45/2/1
f 50/2/1 46/2/1 49/2/1
f 51/2/1 48/2/1 47/2/1
f 52/2/1 48/2/1 51/2/1
f 57/2/1 54/2/1 53/2/1
f 58/2/1 54/2/1 57/2/1
f 59/2/1 56/2/1 55/2/1
f 60/2/1 56/2/1 59/2/1
f 65/2/1 62/2/1 61/2/1
f 66/2/1 62/2/1 65/2/1
f 67/2/1 64/2/1 63/2/1
f 68/2/1 64/2/1 67/2/1
f 73/2/1 70/2/1 69/2/1
f 74/2/1 70/2/1 73/2/1
f 75/2/1 72/2/1 71/2/1
f 76/2/1 72/2/1 75/2/1
f 77/2/2 78/2/2 81/2/2
f 81/2/2 78/2/2 82/2/2
f 79/2/2 80/2/2 83/2/2
f 83/2/2 80/2/2 84/2/2
f 85/2/2 86/2/2 89/2/2
f 89/2/2 86/2/2 90/2/2
f 87/2/2 88/2/2 91/2/2
f 91/2/2 88/2/2 92/2/2
f 93/2/2 94/2/2 97/2/2
f 97/2/2 94/2/2 98/2/2
f 95/2/2 96/2/2 99/2/2
f 99/2/2 96/2/2 100/2/2
f 101/2/2 102/2/2 105/2/2
f 105/2/2 102/2/2 106/2/2
f 103/2/2 104/2/2 107/2/2
f 107/2/2 104/2/2 108/2/2
f 109/2/2 110/2/2 113/2/2
f 113/2/2 110/2/2 114/2/2
f 111/2/2 112/2/2 115/2/2
f 115/2/2 112/2/2 116/2/2
f 117/1/2 118/1/2 121/1/2
f 121/1/2 118/1/2 122/1/2
f 119/1/2 120/1/2 123/1/2
f 123/1/2 120/1/2 124/1/2
f 125/1/2 126/1/2 129/1/2
f 129/1/2 126/1/2 130/1/2
f 127/1/2 128/1/2 131/1/2
f 131/1/2 128/1/2 132/1/2
f 133/1/2 134/1/2 137/1/2
f 137/1/2 134/1/2 138/1/2
f 135/1/2 136/1/2 139/1/2
f 139/1/2 136/1/2 140/1/2
f 141/1/2 142/1/2 145/1/2
f 145/1/2 142/1/2 146/1/2
f 143/1/2 144/1/2 147/1/2
f 147/1/2 144/1/2 148/1/2
f 149/1/2 150/1/2 151/1/2
f 151/1/2 150/1/2 152/1/2
f 155/2/3 154/2/3 153/2/3
f 156/2/3 154/2/3 155/2/3
f 159/2/3 158/2/3 157/2/3
f 160/2/3 158/2/3 159/2/3
f 163/2/3 162/2/3 161/2/3
f 164/2/3 162/2/3 163/2/3
f 167/2/3 166/2/3 165/2/3
f 168/2/3 166/2/3 167/2/3
f 171/2/3 170/2/3 169/2/3
f 172/2/3 170/2/3 171/2/3
f 175/2/3 174/2/3 173/2/3
f 176/2/3 174/2/3 175/2/3
f 179/2/3 178/2/3 177/2/3
f 180/2/3 178/2/3 179/2/3
f 183/2/3 182/2/3 181/2/3
f 184/2/3 182/2/3 183/2/3
f 187/2/3 186/2/3 185/2/3
f 188/2/3 186/2/3 187/2/3
f 191/1/3 190/1/3 189/1/3
f 192/1/3 190/1/3 191/1/3
f 195/1/3 194/1/3 193/1/3
f 196/1/3 194/1/3 195/1/3
f 199/1/3 198/1/3 197/1/3
f 200/1/3 198/1/3 199/1/3
f 203/1/3 202/1/3 201/1/3
f 204/1/3 202/1/3 203/1/3
f 207/1/3 206/1/3 205/1/3
f 208/1/3 206/1/3 207/1/3
f 211/1/3 210/1/3 209/1/3
f 212/1/3 210/1/3 211/1/3
f 215/1/3 214/1/3 213/1/3
f 216/1/3 214/1/3 215/1/3
f 219/1/3 218/1/3 217/1/3
f 220/1/3 218/1/3 219/1/3
f 223/1/3 222/1/3 221/1/3
f 224/1/3 222/1/3 223/1/3
f 227/1/3 226/1/3 225/1/3
f 228/1/3 226/1/3 227/1/3
f 229/1/4 230/1/4 231/1/4
f 231/1/4 230/1/4 232/1/4
f 233/1/4 234/1/4 235/1/4
f 235/1/4 234/1/4 236/1/4
f 237/1/4 238/1/4 239/1/4
f 239/1/4 238/1/4 240/1/4
f 241/1/4 242/1/4 243/1/4
f 243/1/4 242/1/4 244/1/4
f 245/1/4 246/1/4 247/1/4
f 247/1/4 246/1/4 248/1/4
f 249/1/4 250/1/4 251/1/4
f 251/1/4 250/1/4 252/1/4
f 253/1/4 254/1/4 255/1/4
f 255/1/4 254/1/4 256/1/4
f 257/1/4 258/1/4 259/1/4
f 259/1/4 258/1/4 260/1/4
f 261/1/4 262/1/4 263/1/4
f 263/1/4 262/1/4 264/1/4
f 265/1/4 266/1/4 267/1/4
f 267/1/4 266/1/4 268/1/4
f 269/2/4 270/2/4 271/2/4
f 271/2/4 270/2/4 272/2/4
f 273/2/4 274/2/4 275/2/4
f 275/2/4 274/2/4 276/2/4
f 277/2/4 278/2/4 279/2/4
f 279/2/4 278/2/4 280/2/4
f 281/2/4 282/2/4 283/2/4
f 283/2/4 282/2/4 284/2/4
f 285/2/4 286/2/4 287/2/4
f 287/2/4 286/2/4 288/2/4
f 289/2/4 290/2/4 291/2/4
f 291/2/4 290/2/4 292/2/4
f 293/2/4 294/2/4 295/2/4
f 295/2/4 294/2/4 296/2/4
f 297/2/4 298/2/4 299/2/4
f 299/2/4 298/2/4 300/2/4
f 301/2/4 302/2/4 303/2/4
f 303/2/4 302/2/4 304/2/4
f 308/2/5 306/2/5 305/2/5
f 309/2/5 306/2/5 308/2/5
f 312/2/5 308/2/5 307/2/5
f 312/2/5 310/2/5 309/2/5
f 312/2/5 309/2/5 308/2/5
f 313/2/5 310/2/5 312/2/5
f 316/2/5 312/2/5 311/2/5
f 316/2/5 314/2/5 313/2/5
f 316/2/5 313/2/5 312/2/5
f 317/2/5 314/2/5 316/2/5
f 320/2/5 316/2/5 315/2/5
f 320/2/5 318/2/5 317/2/5
f 320/2/5 317/2/5 316/2/5
f 321/2/5 318/2/5 320/2/5
f 324/2/5 320/2/5 319/2/5
f 324/2/5 322/2/5 321/2/5
f 324/2/5 321/2/5 320/2/5
f 325/2/5 322/2/5 324/2/5
f 328/1/5 324/1/5 323/1/5
f 329/2/5 325/2/5 324/2/5
f 329/1/5 324/1/5 328/1/5
f 330/2/5 325/2/5 329/2/5
f 331/2/5 325/2/5 330/2/5
f 332/1/5 326/1/5 325/1/5
f 332/2/5 325/2/5 331/2/5
f 333/1/5 326/1/5 332/1/5
f 336/1/5 328/1/5 327/1/5
f 336/1/5 329/1/5 328/1/5
f 336/1/5 330/1/5 329/1/5
f 337/2/5 331/2/5 330/2/5
f 337/1/5 330/1/5 336/1/5
f 338/2/5 331/2/5 337/2/5
f 339/2/5 331/2/5 338/2/5
f 340/1/5 334/1/5 333/1/5
f 340/2/5 331/2/5 339/2/5
f 340/1/5 333/1/5 332/1/5
f 340/1/5 332/1/5 331/1/5
f 341/1/5 334/1/5 340/1/5
f 343/1/5 336/1/5 335/1/5
f 343/2/5 339/2/5 338/2/5
f 343/1/5 338/1/5 337/1/5
f 343/1/5 337/1/5 336/1/5
f 344/2/5 339/2/5 343/2/5
f 345/2/5 339/2/5 344/2/5
f 346/1/5 342/1/5 341/1/5
f 346/2/5 339/2/5 345/2/5
f 346/1/5 341/1/5 340/1/5
f 346/1/5 340/1/5 339/1/5
f 348/1/5 344/1/5 343/1/5
f 348/1/5 343/1/5 335/1/5
f 349/2/5 345/2/5 344/2/5
f 349/1/5 344/1/5 348/1/5
f 350/2/5 345/2/5 349/2/5
f 351/2/5 345/2/5 350/2/5
f 352/1/5 346/1/5 345/1/5
f 352/2/5 345/2/5 351/2/5
f 353/1/5 342/1/5 346/1/5
f 353/1/5 346/1/5 352/1/5
f 355/1/5 348/1/5 347/1/5
f 355/2/5 351/2/5 350/2/5
f 355/1/5 349/1/5 348/1/5
f 355/1/5 350/1/5 349/1/5
f 356/2/5 351/2/5 355/2/5
f 357/2/5 351/2/5 356/2/5
f 358/1/5 354/1/5 353/1/5
f 358/2/5 351/2/5 357/2/5
f 358/1/5 352/1/5 351/1/5
f 358/1/5 353/1/5 352/1/5
f 359/2/5 357/2/5 356/2/5
f 359/1/5 356/1/5 355/1/5
f 360/2/5 357/2/5 359/2/5
f 361/2/5 357/2/5 360/2/5
f 362/1/5 358/1/5 357/1/5
f 362/2/5 357/2/5 361/2/5
f 364/1/5 355/1/5 347/1/5
f 364/1/5 359/1/5 355/1/5
f 364/1/5 360/1/5 359/1/5
f 365/2/5 361/2/5 360/2/5
f 365/1/5 360/1/5 364/1/5
f 366/2/5 361/2/5 365/2/5
f 367/2/5 361/2/5 366/2/5
f 368/1/5 362/1/5 361/1/5
f 368/2/5 361/2/5 367/2/5
f 369/1/5 354/1/5 358/1/5
f 369/1/5 362/1/5 368/1/5
f 369/1/5 358/1/5 362/1/5
f 371/1/5 364/1/5 363/1/5
f 371/1/5 366/1/5 365/1/5
f 371/2/5 367/2/5 366/2/5
f 371/1/5 365/1/5 364/1/5
f 372/2/5 367/2/5 371/2/5
f 373/2/5 367/2/5 372/2/5
f 374/1/5 368/1/5 367/1/5
f 374/2/5 367/2/5 373/2/5
f 374/1/5 370/1/5 369/1/5
f 374/1/5 369/1/5 368/1/5
f 375/2/5 373/2/5 372/2/5
f 375/1/5 372/1/5 371/1/5
f 376/2/5 373/2/5 375/2/5
f 377/2/5 373/2/5 376/2/5
f 378/1/5 374/1/5 373/1/5
f 378/2/5 373/2/5 377/2/5
f 379/2/5 377/2/5 376/2/5
f 379/1/5 376/1/5 375/1/5
f 380/2/5 377/2/5 379/2/5
f 381/2/5 377/2/5 380/2/5
f 382/1/5 378/1/5 377/1/5
f 382/2/5 377/2/5 381/2/5
f 383/1/5 379/1/5 375/1/5
f 383/1/5 380/1/5 379/1/5
f 384/2/5 381/2/5 380/2/5
f 384/1/5 380/1/5 383/1/5
f 385/1/5 382/1/5 381/1/5
f 385/2/5 381/2/5 384/2/5
f 386/1/5 378/1/5 382/1/5
f 386/1/5 382/1/5 385/1/5
f 387/1/5 375/1/5 371/1/5
f 387/1/5 383/1/5 375/1/5
f 388/2/5 386/2/5 385/2/5
f 388/1/5 383/1/5 387/1/5
f 388/2/5 385/2/5 384/2/5
f 388/2/5 384/2/5 383/2/5
f 389/1/5 378/1/5 386/1/5
f 389/2/5 386/2/5 388/2/5
f 390/1/5 374/1/5 378/1/5
f 390/1/5 378/1/5 389/1/5
f 391/1/5 371/1/5 363/1/5
f 391/1/5 387/1/5 371/1/5
f 392/2/5 389/2/5 388/2/5
f 392/1/5 387/1/5 391/1/5
f 392/2/5 388/2/5 387/2/5
f 392/2/5 390/2/5 389/2/5
f 393/1/5 374/1/5 390/1/5
f 393/2/5 390/2/5 392/2/5
f 394/1/5 370/1/5 374/1/5
f 394/1/5 374/1/5 393/1/5
f 395/1/5 391/1/5 363/1/5
f 396/1/5 391/1/5 395/1/5
f 397/1/5 391/1/5 396/1/5
f 398/2/5 393/2/5 392/2/5
f 398/1/5 391/1/5 397/1/5
f 398/2/5 392/2/5 391/2/5
f 398/2/5 394/2/5 393/2/5
f 399/1/5 370/1/5 394/1/5
f 399/2/5 394/2/5 398/2/5
f 400/1/5 370/1/5 399/1/5
f 401/1/5 370/1/5 400/1/5
f 402/1/5 370/1/5 401/1/5
f 403/1/5 397/1/5 396/1/5
f 404/2/5 398/2/5 397/2/5
f 404/1/5 397/1/5 403/1/5
f 404/2/5 399/2/5 398/2/5
f 404/2/5 400/2/5 399/2/5
f 405/1/5 401/1/5 400/1/5
f 405/2/5 400/2/5 404/2/5
f 406/1/5 401/1/5 405/1/5
f 407/1/5 403/1/5 396/1/5
f 408/2/5 404/2/5 403/2/5
f 408/1/5 403/1/5 407/1/5
f 408/2/5 405/2/5 404/2/5
f 408/2/5 406/2/5 405/2/5
f 409/1/5 401/1/5 406/1/5
f 409/2/5 406/2/5 408/2/5
f 410/1/5 401/1/5 409/1/5
f 411/1/5 407/1/5 396/1/5
f 412/1/5 407/1/5 411/1/5
f 413/1/5 407/1/5 412/1/5
f 414/2/5 408/2/5 407/2/5
f 414/1/5 407/1/5 413/1/5
f 414/2/5 409/2/5 408/2/5
f 414/2/5 410/2/5 409/2/5
f 415/1/5 401/1/5 410/1/5
f 415/2/5 410/2/5 414/2/5
f 416/1/5 401/1/5 415/1/5
f 417/1/5 401/1/5 416/1/5
f 418/1/5 401/1/5 417/1/5
f 419/1/5 413/1/5 412/1/5
f 420/2/5 414/2/5 413/2/5
f 420/1/5 413/1/5 419/1/5
f 420/2/5 415/2/5 414/2/5
f 420/2/5 416/2/5 415/2/5
f 421/1/5 417/1/5 416/1/5
f 421/2/5 416/2/5 420/2/5
f 422/1/5 417/1/5 421/1/5
f 423/1/5 419/1/5 412/1/5
f 424/1/5 419/1/5 423/1/5
f 425/1/5 419/1/5 424/1/5
f 426/2/5 420/2/5 419/2/5
f 426/1/5 419/1/5 425/1/5
f 426/2/5 421/2/5 420/2/5
f 426/2/5 422/2/5 421/2/5
f 427/1/5 417/1/5 422/1/5
f 427/2/5 422/2/5 426/2/5
f 428/1/5 417/1/5 427/1/5
f 429/1/5 417/1/5 428/1/5
f 430/1/5 417/1/5 429/1/5
f 431/1/5 425/1/5 424/1/5
f 432/1/5 425/1/5 431/1/5
f 433/1/5 425/1/5 432/1/5
f 434/2/5 426/2/5 425/2/5
f 434/1/5 425/1/5 433/1/5
f 434/2/5 427/2/5 426/2/5
f 434/2/5 428/2/5 427/2/5
f 435/1/5 429/1/5 428/1/5
f 435/2/5 428/2/5 434/2/5
f 436/1/5 429/1/5 435/1/5
f 437/1/5 429/1/5 436/1/5
f 438/1/5 429/1/5 437/1/5
f 439/1/5 433/1/5 432/1/5
f 440/2/5 434/2/5 433/2/5
f 440/1/5 433/1/5 439/1/5
f 440/2/5 435/2/5 434/2/5
f 440/2/5 436/2/5 435/2/5
f 441/1/5 437/1/5 436/1/5
f 441/2/5 436/2/5 440/2/5
f 442/1/5 437/1/5 441/1/5
f 443/2/5 441/2/5 440/2/5
f 444/2/5 441/2/5 443/2/5
f 445/2/5 441/2/5 444/2/5
f 446/2/5 441/2/5 445/2/5
f 447/2/5 445/2/5 444/2/5
f 448/2/5 445/2/5 447/2/5
f 449/2/5 445/2/5 448/2/5
f 450/2/5 445/2/5 449/2/5
f 451/2/5 449/2/5 448/2/5
f 452/2/5 449/2/5 451/2/5
f 453/2/5 449/2/5 452/2/5
f 454/2/5 449/2/5 453/2/5
f 455/2/5 453/2/5 452/2/5
f 456/2/5 453/2/5 455/2/5
f 457/2/5 453/2/5 456/2/5
f 458/2/5 453/2/5 457/2/5
f 459/2/5 457/2/5 456/2/5
f 460/2/5 457/2/5 459/2/5
f 461/2/6 462/2/6 464/2/6
f 464/2/6 462/2/6 465/2/6
f 463/2/6 464/2/6 468/2/6
f 465/2/6 466/2/6 468/2/6
f 464/2/6 465/2/6 468/2/6
f 468/2/6 466/2/6 469/2/6
f 467/2/6 468/2/6 472/2/6
f 469/2/6 470/2/6 472/2/6
f 468/2/6 469/2/6 472/2/6
f 472/2/6 470/2/6 473/2/6
f 471/2/6 472/2/6 476/2/6
f 473/2/6 474/2/6 476/2/6
f 472/2/6 473/2/6 476/2/6
f 476/2/6 474/2/6 477/2/6
f 475/2/6 476/2/6 480/2/6
f 477/2/6 478/2/6 480/2/6
f 476/2/6 477/2/6 480/2/6
f 480/2/6 478/2/6 481/2/6
f 479/1/6 480/1/6 484/1/6
f 480/2/6 481/2/6 485/2/6
f 484/1/6 480/1/6 485/1/6
f 485/2/6 481/2/6 486/2/6
f 486/2/6 481/2/6 487/2/6
f 481/1/6 482/1/6 488/1/6
f 487/2/6 481/2/6 488/2/6
f 488/1/6 482/1/6 489/1/6
f 483/1/6 484/1/6 492/1/6
f 484/1/6 485/1/6 492/1/6
f 485/1/6 486/1/6 492/1/6
f 486/2/6 487/2/6 493/2/6
f 492/1/6 486/1/6 493/1/6
f 493/2/6 487/2/6 494/2/6
f 494/2/6 487/2/6 495/2/6
f 489/1/6 490/1/6 496/1/6
f 495/2/6 487/2/6 496/2/6
f 488/1/6 489/1/6 496/1/6
f 487/1/6 488/1/6 496/1/6
f 496/1/6 490/1/6 497/1/6
f 491/1/6 492/1/6 499/1/6
f 494/2/6 495/2/6 499/2/6
f 493/1/6 494/1/6 499/1/6
f 492/1/6 493/1/6 499/1/6
f 499/2/6 495/2/6 500/2/6
f 500/2/6 495/2/6 501/2/6
f 497/1/6 498/1/6 502/1/6
f 501/2/6 495/2/6 502/2/6
f 496/1/6 497/1/6 502/1/6
f 495/1/6 496/1/6 502/1/6
f 499/1/6 500/1/6 504/1/6
f 491/1/6 499/1/6 504/1/6
f 500/2/6 501/2/6 505/2/6
f 504/1/6 500/1/6 505/1/6
f 505/2/6 501/2/6 506/2/6
f 506/2/6 501/2/6 507/2/6
f 501/1/6 502/1/6 508/1/6
f 507/2/6 501/2/6 508/2/6
f 502/1/6 498/1/6 509/1/6
f 508/1/6 502/1/6 509/1/6
f 503/1/6 504/1/6 511/1/6
f 506/2/6 507/2/6 511/2/6
f 504/1/6 505/1/6 511/1/6
f 505/1/6 506/1/6 511/1/6
f 511/2/6 507/2/6 512/2/6
f 512/2/6 507/2/6 513/2/6
f 509/1/6 510/1/6 514/1/6
f 513/2/6 507/2/6 514/2/6
f 507/1/6 508/1/6 514/1/6
f 508/1/6 509/1/6 514/1/6
f 512/2/6 513/2/6 515/2/6
f 511/1/6 512/1/6 515/1/6
f 515/2/6 513/2/6 516/2/6
f 516/2/6 513/2/6 517/2/6
f 513/1/6 514/1/6 518/1/6
f 517/2/6 513/2/6 518/2/6
f 503/1/6 511/1/6 520/1/6
f 511/1/6 515/1/6 520/1/6
f 515/1/6 516/1/6 520/1/6
f 516/2/6 517/2/6 521/2/6
f 520/1/6 516/1/6 521/1/6
f 521/2/6 517/2/6 522/2/6
f 522/2/6 517/2/6 523/2/6
f 517/1/6 518/1/6 524/1/6
f 523/2/6 517/2/6 524/2/6
f 514/1/6 510/1/6 525/1/6
f 524/1/6 518/1/6 525/1/6
f 518/1/6 514/1/6 525/1/6
f 519/1/6 520/1/6 527/1/6
f 521/1/6 522/1/6 527/1/6
f 522/2/6 523/2/6 527/2/6
f 520/1/6 521/1/6 527/1/6
f 527/2/6 523/2/6 528/2/6
f 528/2/6 523/2/6 529/2/6
f 523/1/6 524/1/6 530/1/6
f 529/2/6 523/2/6 530/2/6
f 525/1/6 526/1/6 530/1/6
f 524/1/6 525/1/6 530/1/6
f 528/2/6 529/2/6 531/2/6
f 527/1/6 528/1/6 531/1/6
f 531/2/6 529/2/6 532/2/6
f 532/2/6 529/2/6 533/2/6
f 529/1/6 530/1/6 534/1/6
f 533/2/6 529/2/6 534/2/6
f 532/2/6 533/2/6 535/2/6
f 531/1/6 532/1/6 535/1/6
f 535/2/6 533/2/6 536/2/6
f 536/2/6 533/2/6 537/2/6
f 533/1/6 534/1/6 538/1/6
f 537/2/6 533/2/6 538/2/6
f 531/1/6 535/1/6 539/1/6
f 535/1/6 536/1/6 539/1/6
f 536/2/6 537/2/6 540/2/6
f 539/1/6 536/1/6 540/1/6
f 537/1/6 538/1/6 541/1/6
f 540/2/6 537/2/6 541/2/6
f 538/1/6 534/1/6 542/1/6
f 541/1/6 538/1/6 542/1/6
f 527/1/6 531/1/6 543/1/6
f 531/1/6 539/1/6 543/1/6
f 541/2/6 542/2/6 544/2/6
f 543/1/6 539/1/6 544/1/6
f 540/2/6 541/2/6 544/2/6
f 539/2/6 540/2/6 544/2/6
f 542/1/6 534/1/6 545/1/6
f 544/2/6 542/2/6 545/2/6
f 534/1/6 530/1/6 546/1/6
f 545/1/6 534/1/6 546/1/6
f 519/1/6 527/1/6 547/1/6
f 527/1/6 543/1/6 547/1/6
f 544/2/6 545/2/6 548/2/6
f 547/1/6 543/1/6 548/1/6
f 543/2/6 544/2/6 548/2/6
f 545/2/6 546/2/6 548/2/6
f 546/1/6 530/1/6 549/1/6
f 548/2/6 546/2/6 549/2/6
f 530/1/6 526/1/6 550/1/6
f 549/1/6 530/1/6 550/1/6
f 519/1/6 547/1/6 551/1/6
f 551/1/6 547/1/6 552/1/6
f 552/1/6 547/1/6 553/1/6
f 548/2/6 549/2/6 554/2/6
f 553/1/6 547/1/6 554/1/6
f 547/2/6 548/2/6 554/2/6
f 549/2/6 550/2/6 554/2/6
f 550/1/6 526/1/6 555/1/6
f 554/2/6 550/2/6 555/2/6
f 555/1/6 526/1/6 556/1/6
f 556/1/6 526/1/6 557/1/6
f 557/1/6 526/1/6 558/1/6
f 552/1/6 553/1/6 559/1/6
f 553/2/6 554/2/6 560/2/6
f 559/1/6 553/1/6 560/1/6
f 554/2/6 555/2/6 560/2/6
f 555/2/6 556/2/6 560/2/6
f 556/1/6 557/1/6 561/1/6
f 560/2/6 556/2/6 561/2/6
f 561/1/6 557/1/6 562/1/6
f 552/1/6 559/1/6 563/1/6
f 559/2/6 560/2/6 564/2/6
f 563/1/6 559/1/6 564/1/6
f 560/2/6 561/2/6 564/2/6
f 561/2/6 562/2/6 564/2/6
f 562/1/6 557/1/6 565/1/6
f 564/2/6 562/2/6 565/2/6
f 565/1/6 557/1/6 566/1/6
f 552/1/6 563/1/6 567/1/6
f 567/1/6 563/1/6 568/1/6
f 568/1/6 563/1/6 569/1/6
f 563/2/6 564/2/6 570/2/6
f 569/1/6 563/1/6 570/1/6
f 564/2/6 565/2/6 570/2/6
f 565/2/6 566/2/6 570/2/6
f 566/1/6 557/1/6 571/1/6
f 570/2/6 566/2/6 571/2/6
f 571/1/6 557/1/6 572/1/6
f 572/1/6 557/1/6 573/1/6
f 573/1/6 557/1/6 574/1/6
f 568/1/6 569/1/6 575/1/6
f 569/2/6 570/2/6 576/2/6
f 575/1/6 569/1/6 576/1/6
f 570/2/6 571/2/6 576/2/6
f 571/2/6 572/2/6 576/2/6
f 572/1/6 573/1/6 577/1/6
f 576/2/6 572/2/6 577/2/6
f 577/1/6 573/1/6 578/1/6
f 568/1/6 575/1/6 579/1/6
f 579/1/6 575/1/6 580/1/6
f 580/1/6 575/1/6 581/1/6
f 575/2/6 576/2/6 582/2/6
f 581/1/6 575/1/6 582/1/6
f 576/2/6 577/2/6 582/2/6
f 577/2/6 578/2/6 582/2/6
f 578/1/6 573/1/6 583/1/6
f 582/2/6 578/2/6 583/2/6
f 583/1/6 573/1/6 584/1/6
f 584/1/6 573/1/6 585/1/6
f 585/1/6 573/1/6 586/1/6
f 580/1/6 581/1/6 587/1/6
f 587/1/6 581/1/6 588/1/6
f 588/1/6 581/1/6 589/1/6
f 581/2/6 582/2/6 590/2/6
f 589/1/6 581/1/6 590/1/6
f 582/2/6 583/2/6 590/2/6
f 583/2/6 584/2/6 590/2/6
f 584/1/6 585/1/6 591/1/6
f 590/2/6 584/2/6 591/2/6
f 591/1/6 585/1/6 592/1/6
f 592/1/6 585/1/6 593/1/6
f 593/1/6 585/1/6 594/1/6
f 588/1/6 589/1/6 595/1/6
f 589/2/6 590/2/6 596/2/6
f 595/1/6 589/1/6 596/1/6
f 590/2/6 591/2/6 596/2/6
f 591/2/6 592/2/6 596/2/6
f 592/1/6 593/1/6 597/1/6
f 596/2/6 592/2/6 597/2/6
f 597/1/6 593/1/6 598/1/6
f 596/2/6 597/2/6 599/2/6
f 599/2/6 597/2/6 600/2/6
f 600/2/6 597/2/6 601/2/6
f 601/2/6 597/2/6 602/2/6
f 600/2/6 601/2/6 603/2/6
f 603/2/6 601/2/6 604/2/6
f 604/2/6 601/2/6 605/2/6
f 605/2/6 601/2/6 606/2/6
f 604/2/6 605/2/6 607/2/6
f 607/2/6 605/2/6 608/2/6
f 608/2/6 605/2/6 609/2/6
f 609/2/6 605/2/6 610/2/6
f 608/2/6 609/2/6 611/2/6
f 611/2/6 609/2/6 612/2/6
f 612/2/6 609/2/6 613/2/6
f 613/2/6 609/2/6 614/2/6
f 612/2/6 613/2/6 615/2/6
f 615/2/6 613/2/6 616/2/6
