# MagicaVoxel @ Ephtracy

# group
o AXE

# material
mtllib Axe.mtl
usemtl palette

# normals
vn -1 0 0
vn 1 0 0
vn 0 -1 0
vn 0 1 0
vn 0 0 -1
vn 0 0 1

# texcoords
vt 0.0449219 0.5
vt 0.705078 0.5
vt 0.751953 0.5
vt 0.876953 0.5

# verts
v -0.2 0 -0.1
v -0.2 0.1 -0.1
v -0.2 0 0
v -0.2 0.1 0
v -0.1 -0.1 -0.1
v -0.1 0 -0.1
v -0.1 0.1 -0.1
v -0.1 0.2 -0.1
v -0.1 -0.1 0
v -0.1 0 0
v -0.1 0.1 0
v -0.1 0.2 0
v 0.3 -0.3 -0.1
v 0.3 -0.1 -0.1
v 0.3 -0.3 0
v 0.3 -0.1 0
v 0.5 0.2 -0.1
v 0.5 0.3 -0.1
v 0.5 0.2 0
v 0.5 0.3 0
v 0.7 -0.3 -0.1
v 0.7 -0.2 -0.1
v 0.7 -0.3 0
v 0.7 -0.2 0
v 0.8 -0.2 -0.1
v 0.8 0.3 -0.1
v 0.8 -0.2 0
v 0.8 0.3 0
v 0.3 -0.3 -0.1
v 0.3 -0.3 0
v 0.7 -0.3 -0.1
v 0.7 -0.3 0
v 0.7 -0.2 -0.1
v 0.7 -0.2 0
v 0.8 -0.2 -0.1
v 0.8 -0.2 0
v -0.1 -0.1 -0.1
v -0.1 -0.1 0
v 0.3 -0.1 -0.1
v 0.3 -0.1 0
v -0.2 0 -0.1
v -0.2 0 0
v -0.1 0 -0.1
v -0.1 0 0
v -0.2 0.1 -0.1
v -0.2 0.1 0
v -0.1 0.1 -0.1
v -0.1 0.1 0
v -0.1 0.2 -0.1
v -0.1 0.2 0
v 0.5 0.2 -0.1
v 0.5 0.2 0
v 0.5 0.3 -0.1
v 0.5 0.3 0
v 0.8 0.3 -0.1
v 0.8 0.3 0
v 0.3 -0.3 -0.1
v 0.7 -0.3 -0.1
v 0.4 -0.2 -0.1
v 0.7 -0.2 -0.1
v 0.8 -0.2 -0.1
v -0.1 -0.1 -0.1
v 0.3 -0.1 -0.1
v 0.4 -0.1 -0.1
v 0.5 -0.1 -0.1
v -0.2 0 -0.1
v -0.1 0 -0.1
v 0.1 0 -0.1
v 0.2 0 -0.1
v 0.5 0 -0.1
v 0.7 0 -0.1
v -0.2 0.1 -0.1
v -0.1 0.1 -0.1
v 0.1 0.1 -0.1
v 0.2 0.1 -0.1
v 0.6 0.1 -0.1
v 0.7 0.1 -0.1
v -0.1 0.2 -0.1
v 0.5 0.2 -0.1
v 0.6 0.2 -0.1
v 0.7 0.2 -0.1
v 0.5 0.3 -0.1
v 0.8 0.3 -0.1
v 0.3 -0.3 0
v 0.7 -0.3 0
v 0.4 -0.2 0
v 0.7 -0.2 0
v 0.8 -0.2 0
v -0.1 -0.1 0
v 0.3 -0.1 0
v 0.4 -0.1 0
v 0.5 -0.1 0
v -0.2 0 0
v -0.1 0 0
v 0.1 0 0
v 0.2 0 0
v 0.5 0 0
v 0.7 0 0
v -0.2 0.1 0
v -0.1 0.1 0
v 0.1 0.1 0
v 0.2 0.1 0
v 0.6 0.1 0
v 0.7 0.1 0
v -0.1 0.2 0
v 0.5 0.2 0
v 0.6 0.2 0
v 0.7 0.2 0
v 0.5 0.3 0
v 0.8 0.3 0

# faces
f 3/4/1 2/4/1 1/4/1
f 4/4/1 2/4/1 3/4/1
f 9/4/1 6/4/1 5/4/1
f 10/4/1 6/4/1 9/4/1
f 11/4/1 8/4/1 7/4/1
f 12/4/1 8/4/1 11/4/1
f 15/4/1 14/4/1 13/4/1
f 16/4/1 14/4/1 15/4/1
f 19/4/1 18/4/1 17/4/1
f 20/4/1 18/4/1 19/4/1
f 21/4/2 22/4/2 23/4/2
f 23/4/2 22/4/2 24/4/2
f 25/4/2 26/4/2 27/4/2
f 27/4/2 26/4/2 28/4/2
f 31/4/3 30/4/3 29/4/3
f 32/4/3 30/4/3 31/4/3
f 35/4/3 34/4/3 33/4/3
f 36/4/3 34/4/3 35/4/3
f 39/4/3 38/4/3 37/4/3
f 40/4/3 38/4/3 39/4/3
f 43/4/3 42/4/3 41/4/3
f 44/4/3 42/4/3 43/4/3
f 45/4/4 46/4/4 47/4/4
f 47/4/4 46/4/4 48/4/4
f 49/4/4 50/4/4 51/4/4
f 51/4/4 50/4/4 52/4/4
f 53/4/4 54/4/4 55/4/4
f 55/4/4 54/4/4 56/4/4
f 59/4/5 58/4/5 57/4/5
f 60/4/5 58/4/5 59/4/5
f 63/4/5 59/4/5 57/4/5
f 64/2/5 60/2/5 59/2/5
f 64/4/5 59/4/5 63/4/5
f 65/2/5 60/2/5 64/2/5
f 67/4/5 63/4/5 62/4/5
f 67/4/5 64/4/5 63/4/5
f 67/4/5 65/4/5 64/4/5
f 68/4/5 65/4/5 67/4/5
f 69/4/5 65/4/5 68/4/5
f 70/2/5 60/2/5 65/2/5
f 70/4/5 65/4/5 69/4/5
f 71/4/5 61/4/5 60/4/5
f 71/2/5 60/2/5 70/2/5
f 72/4/5 67/4/5 66/4/5
f 73/1/5 68/1/5 67/1/5
f 73/4/5 67/4/5 72/4/5
f 74/4/5 69/4/5 68/4/5
f 74/1/5 68/1/5 73/1/5
f 75/3/5 70/3/5 69/3/5
f 75/4/5 69/4/5 74/4/5
f 75/3/5 71/3/5 70/3/5
f 76/3/5 71/3/5 75/3/5
f 77/4/5 61/4/5 71/4/5
f 77/3/5 71/3/5 76/3/5
f 78/4/5 74/4/5 73/4/5
f 78/4/5 76/4/5 75/4/5
f 78/4/5 75/4/5 74/4/5
f 79/4/5 76/4/5 78/4/5
f 80/2/5 77/2/5 76/2/5
f 80/4/5 76/4/5 79/4/5
f 81/4/5 61/4/5 77/4/5
f 81/2/5 77/2/5 80/2/5
f 82/4/5 80/4/5 79/4/5
f 82/4/5 81/4/5 80/4/5
f 83/4/5 61/4/5 81/4/5
f 83/4/5 81/4/5 82/4/5
f 84/4/6 85/4/6 86/4/6
f 86/4/6 85/4/6 87/4/6
f 84/4/6 86/4/6 90/4/6
f 86/2/6 87/2/6 91/2/6
f 90/4/6 86/4/6 91/4/6
f 91/2/6 87/2/6 92/2/6
f 89/4/6 90/4/6 94/4/6
f 90/4/6 91/4/6 94/4/6
f 91/4/6 92/4/6 94/4/6
f 94/4/6 92/4/6 95/4/6
f 95/4/6 92/4/6 96/4/6
f 92/2/6 87/2/6 97/2/6
f 96/4/6 92/4/6 97/4/6
f 87/4/6 88/4/6 98/4/6
f 97/2/6 87/2/6 98/2/6
f 93/4/6 94/4/6 99/4/6
f 94/1/6 95/1/6 100/1/6
f 99/4/6 94/4/6 100/4/6
f 95/4/6 96/4/6 101/4/6
f 100/1/6 95/1/6 101/1/6
f 96/3/6 97/3/6 102/3/6
f 101/4/6 96/4/6 102/4/6
f 97/3/6 98/3/6 102/3/6
f 102/3/6 98/3/6 103/3/6
f 98/4/6 88/4/6 104/4/6
f 103/3/6 98/3/6 104/3/6
f 100/4/6 101/4/6 105/4/6
f 102/4/6 103/4/6 105/4/6
f 101/4/6 102/4/6 105/4/6
f 105/4/6 103/4/6 106/4/6
f 103/2/6 104/2/6 107/2/6
f 106/4/6 103/4/6 107/4/6
f 104/4/6 88/4/6 108/4/6
f 107/2/6 104/2/6 108/2/6
f 106/4/6 107/4/6 109/4/6
f 107/4/6 108/4/6 109/4/6
f 108/4/6 88/4/6 110/4/6
f 109/4/6 108/4/6 110/4/6
